<svg width="460" height="460" xmlns="http://www.w3.org/2000/svg" viewBox="0 0 460 460" preserveAspectRatio="xMidYMin slice">
    <defs>
        <linearGradient id="bgGradient" x1="0%" y1="0%" x2="100%" y2="100%">
            <stop offset="0%" stop-color="#111111" />
            <stop offset="100%" stop-color="#1a1a1a" />
        </linearGradient>
        
        <clipPath id="rounded-edge">
            <rect x="0" y="0" width="460" height="460" rx="20" ry="0" />
        </clipPath>

        <filter id="neon-glow" x="-20%" y="-20%" width="140%" height="140%">
            <feGaussianBlur in="SourceGraphic" stdDeviation="3" result="blur" />
            <feColorMatrix in="blur" result="neon" type="matrix" 
                values="0 0 0 0 0.9
                        0 0 0 0 0.4
                        0 0 0 0 0.1
                        0 0 0 1 0" />
            <feComposite in="SourceGraphic" in2="neon" operator="over" />
        </filter>

        <filter id="blur" x="-5%" y="-5%" width="110%" height="110%">
            <feGaussianBlur stdDeviation="5" />
        </filter>

        <filter id="orange-glow" x="-30%" y="-30%" width="160%" height="160%">
            <feGaussianBlur stdDeviation="5" result="blur" />
            <feColorMatrix type="matrix" in="blur" result="glowMatrix"
                values="0 0 0 0 0.95
                        0 0 0 0 0.5
                        0 0 0 0 0.2
                        0 0 0 0.8 0" />
            <feComposite in="SourceGraphic" in2="glowMatrix" operator="over" />
        </filter>
        
        <pattern id="gridPattern" width="20" height="20" patternUnits="userSpaceOnUse">
            <path d="M 20 0 L 0 0 0 20" fill="none" stroke="rgba(255,165,0,0.1)" stroke-width="0.5"/>
        </pattern>
    </defs>

    <!-- Background with subtle grid -->
    <rect width="100%" height="100%" fill="url(#bgGradient)" />
    <rect width="100%" height="100%" fill="url(#gridPattern)" opacity="0.3" clip-path="url(#rounded-edge)"/>
    
    <!-- Glowing accent elements -->
    <rect x="20" y="40" width="420" height="3" fill="url(#orange-glow)" opacity="0.7" rx="2"/>
    <circle cx="440" cy="40" r="8" fill="#ff8c00" filter="url(#orange-glow)" opacity="0.8"/>
    <circle cx="20" cy="40" r="8" fill="#ff8c00" filter="url(#orange-glow)" opacity="0.8"/>

    <g font-family="'Fira Code', 'Ubuntu Mono', monospace" font-weight="700" fill="#f0f0f0">
        <text x="50%" y="40" font-size="24" filter="url(#neon-glow)" text-anchor="middle" letter-spacing="1" fill="#ff8c00">SYSTEM STATUS</text>

        <g transform="translate(35, 60)" filter="url(#neon-glow)">
            <rect x="0" y="0" width="392" height="160" rx="15" fill="rgba(15, 15, 15, 0.7)" stroke="rgba(255,140,0,0.3)" stroke-width="1"/>
            <g transform="translate(20, 20)" font-size="18">
                <text y="10">CPU:</text>
                <text x="350" y="10" text-anchor="end" id="cpuUsage" fill="#ff8c00">{{cpu_perc}}</text>
                <rect x="0" y="30" width="360" height="8" rx="4" fill="#252525" />
                <rect x="0" y="30" width="{{cpu_width}}" height="8" rx="4" fill="url(#orange-glow)" id="cpuBar" />

                <text y="60">RAM:</text>
                <text x="350" y="60" text-anchor="end" id="ramUsage" fill="#ff8c00">{{mem_used}} / {{mem_total}}</text>
                <rect x="0" y="80" width="360" height="8" rx="4" fill="#252525" />
                <rect x="0" y="80" width="{{mem_width}}" height="8" rx="4" fill="url(#orange-glow)" id="ramBar" />

                <text y="117">GOROUTINES:</text>
                <text x="350" y="120" text-anchor="end" id="goroutines" fill="#ff8c00">{{goroutines}} ({{mem_proc}})</text>
            </g>
        </g>

        <g transform="translate(35, 230)" filter="url(#neon-glow)">
            <rect x="0" y="0" width="392" height="210" rx="15" fill="rgba(15, 15, 15, 0.7)" stroke="rgba(255,140,0,0.3)" stroke-width="1"/>
            <g transform="translate(20, 20)" font-size="18">
                <text y="10">OS:</text>
                <text x="350" y="10" text-anchor="end" id="os" fill="#ff8c00">{{operating_sys}}</text>

                <text y="40">ARCH:</text>
                <text x="350" y="40" text-anchor="end" id="arch" fill="#ff8c00">{{arch}}</text>

                <text y="70">PID:</text>
                <text x="350" y="70" text-anchor="end" id="processId" fill="#ff8c00">{{pid}}</text>

                <text y="100">UPTIME:</text>
                <text x="350" y="100" text-anchor="end" id="uptime" fill="#ff8c00">{{uptime}}</text>

                <text y="130">DISK:</text>
                <text x="350" y="130" text-anchor="end" id="diskUsage" fill="#ff8c00">{{disk_used}} / {{disk_total}}</text>

                <rect x="0" y="144" width="360" height="8" rx="4" fill="#252525" />
                <rect x="0" y="144" width="{{disk_width}}" height="8" rx="4" fill="url(#orange-glow)" id="diskBar" />

                <text y="172" x="40%" text-anchor="middle"><tspan font-size="14" fill="#ff8c00" filter="url(#neon-glow)">{{cpu_name}}</tspan></text>
            </g>
        </g>
    </g>
    
    <!-- Decorative corner elements -->
    <path d="M30,30 L50,30 L30,50 Z" fill="none" stroke="#ff8c00" stroke-width="1.5" filter="url(#neon-glow)" opacity="0.7"/>
    <path d="M430,30 L410,30 L430,50 Z" fill="none" stroke="#ff8c00" stroke-width="1.5" filter="url(#neon-glow)" opacity="0.7"/>
    <path d="M30,430 L50,430 L30,410 Z" fill="none" stroke="#ff8c00" stroke-width="1.5" filter="url(#neon-glow)" opacity="0.7"/>
    <path d="M430,430 L410,430 L430,410 Z" fill="none" stroke="#ff8c00" stroke-width="1.5" filter="url(#neon-glow)" opacity="0.7"/>
</svg>